<mxfile host="65bd71144e">
    <diagram id="TTC9ItkF9DFmu4hpynOX" name="eArztbrief">
        <mxGraphModel dx="1011" dy="737" grid="1" gridSize="10" guides="1" tooltips="1" connect="1" arrows="1" fold="1" page="1" pageScale="1" pageWidth="827" pageHeight="1169" math="0" shadow="0">
            <root>
                <mxCell id="187kaAjlqNE19iwZOsQ7-0"/>
                <mxCell id="187kaAjlqNE19iwZOsQ7-1" parent="187kaAjlqNE19iwZOsQ7-0"/>
                <mxCell id="187kaAjlqNE19iwZOsQ7-2" value="earztbrief.med-united.health" style="shape=agent;offsetSize=8;strokeWidth=2;verticalAlign=top;" parent="187kaAjlqNE19iwZOsQ7-1" vertex="1">
                    <mxGeometry x="320" y="180" width="310" height="110" as="geometry"/>
                </mxCell>
                <mxCell id="187kaAjlqNE19iwZOsQ7-11" style="edgeStyle=none;html=1;entryX=0.5;entryY=0;entryDx=0;entryDy=0;" parent="187kaAjlqNE19iwZOsQ7-1" source="187kaAjlqNE19iwZOsQ7-3" target="187kaAjlqNE19iwZOsQ7-10" edge="1">
                    <mxGeometry relative="1" as="geometry"/>
                </mxCell>
                <mxCell id="187kaAjlqNE19iwZOsQ7-3" value="eArztbrief&#10;Creator" style="shape=agent;offsetSize=8;strokeWidth=2;" parent="187kaAjlqNE19iwZOsQ7-1" vertex="1">
                    <mxGeometry x="350" y="210" width="100" height="60" as="geometry"/>
                </mxCell>
                <mxCell id="187kaAjlqNE19iwZOsQ7-4" value="XML&lt;br&gt;eArztbrief" style="rounded=1;whiteSpace=wrap;html=1;arcSize=60;strokeWidth=2;" parent="187kaAjlqNE19iwZOsQ7-1" vertex="1">
                    <mxGeometry x="520" y="220" width="90" height="40" as="geometry"/>
                </mxCell>
                <mxCell id="187kaAjlqNE19iwZOsQ7-5" value="" style="shape=updateedge;endArrow=none;exitX=1;exitY=0.5;exitDx=0;exitDy=0;entryX=0;entryY=0.5;entryDx=0;entryDy=0;" parent="187kaAjlqNE19iwZOsQ7-1" source="187kaAjlqNE19iwZOsQ7-3" target="187kaAjlqNE19iwZOsQ7-4" edge="1">
                    <mxGeometry width="80" height="30" relative="1" as="geometry">
                        <mxPoint x="490" y="265" as="sourcePoint"/>
                        <mxPoint x="570" y="265" as="targetPoint"/>
                    </mxGeometry>
                </mxCell>
                <mxCell id="187kaAjlqNE19iwZOsQ7-6" value="Quarkus Backend" style="shape=agent;offsetSize=8;strokeWidth=2;verticalAlign=top;" parent="187kaAjlqNE19iwZOsQ7-1" vertex="1">
                    <mxGeometry x="320" y="400" width="310" height="60" as="geometry"/>
                </mxCell>
                <mxCell id="5" style="edgeStyle=none;html=1;exitX=0.25;exitY=1;exitDx=0;exitDy=0;entryX=0.5;entryY=0;entryDx=0;entryDy=0;" parent="187kaAjlqNE19iwZOsQ7-1" source="187kaAjlqNE19iwZOsQ7-6" target="0" edge="1">
                    <mxGeometry relative="1" as="geometry">
                        <mxPoint x="400" y="445" as="sourcePoint"/>
                    </mxGeometry>
                </mxCell>
                <mxCell id="187kaAjlqNE19iwZOsQ7-12" style="edgeStyle=none;html=1;" parent="187kaAjlqNE19iwZOsQ7-1" source="187kaAjlqNE19iwZOsQ7-10" edge="1">
                    <mxGeometry relative="1" as="geometry">
                        <mxPoint x="400" y="400" as="targetPoint"/>
                    </mxGeometry>
                </mxCell>
                <mxCell id="187kaAjlqNE19iwZOsQ7-10" value="HTTP Post" style="rounded=1;whiteSpace=wrap;html=1;arcSize=17;strokeWidth=2;verticalAlign=top;" parent="187kaAjlqNE19iwZOsQ7-1" vertex="1">
                    <mxGeometry x="352.5" y="310" width="95" height="70" as="geometry"/>
                </mxCell>
                <mxCell id="187kaAjlqNE19iwZOsQ7-13" value="PVS" style="shape=agent;offsetSize=8;strokeWidth=2;" parent="187kaAjlqNE19iwZOsQ7-1" vertex="1">
                    <mxGeometry x="320" y="600" width="310" height="60" as="geometry"/>
                </mxCell>
                <mxCell id="187kaAjlqNE19iwZOsQ7-14" value="" style="shape=actor;horizontalLabelPosition=right;align=left;labelPosition=right;strokeWidth=2;" parent="187kaAjlqNE19iwZOsQ7-1" vertex="1">
                    <mxGeometry x="463" y="700" width="25" height="50" as="geometry"/>
                </mxCell>
                <mxCell id="187kaAjlqNE19iwZOsQ7-15" value="" style="shape=useedge;vertical=true;endArrow=none;useSignPosition=left;useSignDirection=south;entryX=0.5;entryY=1;entryDx=0;entryDy=0;exitX=0.75;exitY=0;exitDx=0;exitDy=0;" parent="187kaAjlqNE19iwZOsQ7-1" source="187kaAjlqNE19iwZOsQ7-14" target="187kaAjlqNE19iwZOsQ7-13" edge="1">
                    <mxGeometry height="160" relative="1" as="geometry">
                        <mxPoint x="500" y="810" as="sourcePoint"/>
                        <mxPoint x="500" y="650" as="targetPoint"/>
                    </mxGeometry>
                </mxCell>
                <mxCell id="187kaAjlqNE19iwZOsQ7-16" value="&lt;span&gt;XML&lt;/span&gt;&lt;br&gt;&lt;span&gt;eArztbrief&lt;/span&gt;" style="rounded=1;whiteSpace=wrap;html=1;arcSize=60;strokeWidth=2;" parent="187kaAjlqNE19iwZOsQ7-1" vertex="1">
                    <mxGeometry x="357.5" y="340" width="85" height="30" as="geometry"/>
                </mxCell>
                <mxCell id="0.14" value="Best viewed with the &lt;a href=&quot;https://github.com/ariel-bentu/tam-drawio&quot;&gt;TAM plugin&lt;/a&gt;" style="text;html=1;shape=tamPluginMissing;" parent="187kaAjlqNE19iwZOsQ7-1" vertex="1" connectable="0">
                    <mxGeometry x="215" y="780" width="200" height="25" as="geometry"/>
                </mxCell>
                <mxCell id="0" value="E-Mail" style="rounded=1;whiteSpace=wrap;html=1;arcSize=28;strokeWidth=2;verticalAlign=top;" parent="187kaAjlqNE19iwZOsQ7-1" vertex="1">
                    <mxGeometry x="350" y="495" width="95" height="70" as="geometry"/>
                </mxCell>
                <mxCell id="7" style="edgeStyle=none;html=1;exitX=0.5;exitY=1;exitDx=0;exitDy=0;entryX=0.25;entryY=0;entryDx=0;entryDy=0;" parent="187kaAjlqNE19iwZOsQ7-1" source="2" target="187kaAjlqNE19iwZOsQ7-13" edge="1">
                    <mxGeometry relative="1" as="geometry"/>
                </mxCell>
                <mxCell id="2" value="XML eArztbrief" style="rounded=1;whiteSpace=wrap;html=1;arcSize=60;strokeWidth=2;" parent="187kaAjlqNE19iwZOsQ7-1" vertex="1">
                    <mxGeometry x="361.5" y="520" width="72" height="35" as="geometry"/>
                </mxCell>
                <mxCell id="10" value="JavaMail API" style="shape=agent;offsetSize=8;strokeWidth=2;" parent="187kaAjlqNE19iwZOsQ7-1" vertex="1">
                    <mxGeometry x="333.5" y="430" width="100" height="20" as="geometry"/>
                </mxCell>
                <mxCell id="11" value="SMTP&#10;Server&#10;(Amazon SES&#10;- Simple E-Mail Service)" style="shape=agent;offsetSize=8;strokeWidth=2;" parent="187kaAjlqNE19iwZOsQ7-1" vertex="1">
                    <mxGeometry x="30" y="400" width="200" height="60" as="geometry"/>
                </mxCell>
                <mxCell id="13" value="" style="shape=useedge;endArrow=none;useSignPosition=up;useSignDirection=east;exitX=1;exitY=0.75;exitDx=0;exitDy=0;entryX=0;entryY=0.25;entryDx=0;entryDy=0;" parent="187kaAjlqNE19iwZOsQ7-1" source="11" target="10" edge="1">
                    <mxGeometry width="160" relative="1" as="geometry">
                        <mxPoint x="210" y="440" as="sourcePoint"/>
                        <mxPoint x="340" y="440" as="targetPoint"/>
                    </mxGeometry>
                </mxCell>
            </root>
        </mxGraphModel>
    </diagram>
    <diagram id="5WLaCC7f1vbAUcCXucXl" name="multi-tenancy">
        <mxGraphModel dx="617" dy="468" grid="1" gridSize="10" guides="1" tooltips="1" connect="1" arrows="1" fold="1" page="1" pageScale="1" pageWidth="827" pageHeight="1169" math="0" shadow="0">
            <root>
                <mxCell id="7ca343K3QSAkEU-Pdxtx-0"/>
                <mxCell id="7ca343K3QSAkEU-Pdxtx-1" parent="7ca343K3QSAkEU-Pdxtx-0"/>
                <mxCell id="7ca343K3QSAkEU-Pdxtx-2" value="Hapi FHIR&#10;Multi Tenancy Backend&#10;(https://fhir.med-united.health/&lt;tenand-id&gt;/" style="shape=agent;offsetSize=8;strokeWidth=2;verticalAlign=middle;" parent="7ca343K3QSAkEU-Pdxtx-1" vertex="1">
                    <mxGeometry x="290" y="200" width="440" height="150" as="geometry"/>
                </mxCell>
                <mxCell id="0.1" value="Best viewed with the &lt;a href=&quot;https://github.com/ariel-bentu/tam-drawio&quot;&gt;TAM plugin&lt;/a&gt;" style="text;html=1;shape=tamPluginMissing;" parent="7ca343K3QSAkEU-Pdxtx-1" vertex="1" connectable="0">
                    <mxGeometry x="265" y="495" width="200" height="25" as="geometry"/>
                </mxCell>
                <mxCell id="7ca343K3QSAkEU-Pdxtx-3" value="KeyCloak&#10;(https://id.med-united.health)" style="shape=agent;offsetSize=8;strokeWidth=2;" parent="7ca343K3QSAkEU-Pdxtx-1" vertex="1">
                    <mxGeometry x="20" y="230" width="200" height="80" as="geometry"/>
                </mxCell>
                <mxCell id="7ca343K3QSAkEU-Pdxtx-4" value="OpenUI5 Client&#10;(withÂ https://github.com/SAP/openui5-fhir)" style="shape=agent;offsetSize=8;strokeWidth=2;" parent="7ca343K3QSAkEU-Pdxtx-1" vertex="1">
                    <mxGeometry x="290" y="70" width="440" height="90" as="geometry"/>
                </mxCell>
                <mxCell id="7ca343K3QSAkEU-Pdxtx-5" value="" style="shape=useedge;endArrow=none;edgeStyle=none;useSignPosition=up;useSignDirection=none;exitX=1;exitY=0.5;exitDx=0;exitDy=0;entryX=0;entryY=0.5;entryDx=0;entryDy=0;" parent="7ca343K3QSAkEU-Pdxtx-1" source="7ca343K3QSAkEU-Pdxtx-3" target="7ca343K3QSAkEU-Pdxtx-2" edge="1">
                    <mxGeometry width="160" relative="1" as="geometry">
                        <mxPoint x="160" y="190" as="sourcePoint"/>
                        <mxPoint x="320" y="190" as="targetPoint"/>
                    </mxGeometry>
                </mxCell>
                <mxCell id="7ca343K3QSAkEU-Pdxtx-6" value="OpenID&lt;br&gt;Connect" style="text;html=1;strokeColor=none;fillColor=none;align=center;verticalAlign=middle;whiteSpace=wrap;rounded=0;" parent="7ca343K3QSAkEU-Pdxtx-1" vertex="1">
                    <mxGeometry x="230" y="230" width="60" height="30" as="geometry"/>
                </mxCell>
                <mxCell id="7ca343K3QSAkEU-Pdxtx-7" value="https://github.com/opensrp/hapi-fhir-keycloak" style="text;html=1;strokeColor=none;fillColor=none;align=center;verticalAlign=middle;whiteSpace=wrap;rounded=0;" parent="7ca343K3QSAkEU-Pdxtx-1" vertex="1">
                    <mxGeometry x="5" y="190" width="260" height="30" as="geometry"/>
                </mxCell>
                <mxCell id="7ca343K3QSAkEU-Pdxtx-8" value="PostgreSQL (ACL via row-level-security)" style="shape=agent;offsetSize=8;strokeWidth=2;" parent="7ca343K3QSAkEU-Pdxtx-1" vertex="1">
                    <mxGeometry x="290" y="405" width="440" height="60" as="geometry"/>
                </mxCell>
                <mxCell id="7ca343K3QSAkEU-Pdxtx-9" value="" style="shape=useedge;vertical=true;edgeStyle=none;endArrow=none;useSignPosition=left;useSignDirection=none;entryX=0.5;entryY=1;entryDx=0;entryDy=0;exitX=0.5;exitY=0;exitDx=0;exitDy=0;" parent="7ca343K3QSAkEU-Pdxtx-1" source="7ca343K3QSAkEU-Pdxtx-8" target="7ca343K3QSAkEU-Pdxtx-2" edge="1">
                    <mxGeometry height="160" relative="1" as="geometry">
                        <mxPoint x="540" y="550" as="sourcePoint"/>
                        <mxPoint x="540" y="390" as="targetPoint"/>
                    </mxGeometry>
                </mxCell>
                <mxCell id="7ca343K3QSAkEU-Pdxtx-10" value="" style="shape=useedge;vertical=true;edgeStyle=none;endArrow=none;useSignPosition=left;useSignDirection=none;entryX=0.5;entryY=1;entryDx=0;entryDy=0;exitX=0.5;exitY=0;exitDx=0;exitDy=0;" parent="7ca343K3QSAkEU-Pdxtx-1" source="7ca343K3QSAkEU-Pdxtx-2" target="7ca343K3QSAkEU-Pdxtx-4" edge="1">
                    <mxGeometry height="160" relative="1" as="geometry">
                        <mxPoint x="470" y="320" as="sourcePoint"/>
                        <mxPoint x="470" y="160" as="targetPoint"/>
                    </mxGeometry>
                </mxCell>
            </root>
        </mxGraphModel>
    </diagram>
    <diagram id="VX6zzPoldiH-JHPRvkUI" name="Heimversorgung">
        <mxGraphModel dx="588" dy="468" grid="1" gridSize="10" guides="1" tooltips="1" connect="1" arrows="1" fold="1" page="1" pageScale="1" pageWidth="827" pageHeight="1169" math="0" shadow="0">
            <root>
                <mxCell id="0"/>
                <mxCell id="1" parent="0"/>
                <mxCell id="38" style="edgeStyle=none;html=1;entryX=0;entryY=0.5;entryDx=0;entryDy=0;exitX=0.993;exitY=0.191;exitDx=0;exitDy=0;exitPerimeter=0;" parent="1" source="2" target="33" edge="1">
                    <mxGeometry relative="1" as="geometry"/>
                </mxCell>
                <mxCell id="44" style="edgeStyle=none;html=1;entryX=0;entryY=0.5;entryDx=0;entryDy=0;" parent="1" source="2" target="40" edge="1">
                    <mxGeometry relative="1" as="geometry"/>
                </mxCell>
                <mxCell id="45" style="edgeStyle=none;html=1;entryX=0;entryY=0.5;entryDx=0;entryDy=0;exitX=1.002;exitY=0.859;exitDx=0;exitDy=0;exitPerimeter=0;" parent="1" source="2" target="37" edge="1">
                    <mxGeometry relative="1" as="geometry"/>
                </mxCell>
                <mxCell id="68" style="edgeStyle=none;html=1;entryX=1;entryY=0.5;entryDx=0;entryDy=0;exitX=-0.007;exitY=0.891;exitDx=0;exitDy=0;exitPerimeter=0;" parent="1" source="2" target="67" edge="1">
                    <mxGeometry relative="1" as="geometry"/>
                </mxCell>
                <mxCell id="2" value="Heim" style="shape=agent;offsetSize=8;strokeWidth=2;" parent="1" vertex="1">
                    <mxGeometry x="355" y="650" width="100" height="175" as="geometry"/>
                </mxCell>
                <mxCell id="16" style="edgeStyle=none;html=1;entryX=0;entryY=0.5;entryDx=0;entryDy=0;exitX=1.002;exitY=0.143;exitDx=0;exitDy=0;exitPerimeter=0;" parent="1" source="3" target="10" edge="1">
                    <mxGeometry relative="1" as="geometry"/>
                </mxCell>
                <mxCell id="17" style="edgeStyle=none;html=1;entryX=0;entryY=0.5;entryDx=0;entryDy=0;" parent="1" source="3" target="11" edge="1">
                    <mxGeometry relative="1" as="geometry"/>
                </mxCell>
                <mxCell id="18" style="edgeStyle=none;html=1;entryX=0;entryY=0.5;entryDx=0;entryDy=0;exitX=1.002;exitY=0.849;exitDx=0;exitDy=0;exitPerimeter=0;" parent="1" source="3" target="12" edge="1">
                    <mxGeometry relative="1" as="geometry"/>
                </mxCell>
                <mxCell id="3" value="Ambulante&#10;Pflegedienste" style="shape=agent;offsetSize=8;strokeWidth=2;" parent="1" vertex="1">
                    <mxGeometry x="350" y="210" width="100" height="170" as="geometry"/>
                </mxCell>
                <mxCell id="4" value="Â  Â Patient" style="shape=actor;horizontalLabelPosition=right;align=left;labelPosition=right;strokeWidth=2;" parent="1" vertex="1">
                    <mxGeometry x="654" y="210" width="25" height="50" as="geometry"/>
                </mxCell>
                <mxCell id="21" style="edgeStyle=none;html=1;entryX=-0.007;entryY=0.153;entryDx=0;entryDy=0;entryPerimeter=0;" parent="1" source="5" target="3" edge="1">
                    <mxGeometry relative="1" as="geometry"/>
                </mxCell>
                <mxCell id="5" value="Â  Â Arzt" style="shape=actor;horizontalLabelPosition=right;align=left;labelPosition=right;strokeWidth=2;" parent="1" vertex="1">
                    <mxGeometry x="194" y="210" width="25" height="50" as="geometry"/>
                </mxCell>
                <mxCell id="22" style="edgeStyle=none;html=1;entryX=0;entryY=0.5;entryDx=0;entryDy=0;" parent="1" source="6" target="3" edge="1">
                    <mxGeometry relative="1" as="geometry"/>
                </mxCell>
                <mxCell id="6" value="Â  Â Arzt" style="shape=actor;horizontalLabelPosition=right;align=left;labelPosition=right;strokeWidth=2;" parent="1" vertex="1">
                    <mxGeometry x="194" y="270" width="25" height="50" as="geometry"/>
                </mxCell>
                <mxCell id="23" style="edgeStyle=none;html=1;entryX=-0.04;entryY=0.859;entryDx=0;entryDy=0;entryPerimeter=0;" parent="1" source="7" target="3" edge="1">
                    <mxGeometry relative="1" as="geometry"/>
                </mxCell>
                <mxCell id="7" value="Â  Â Arzt" style="shape=actor;horizontalLabelPosition=right;align=left;labelPosition=right;strokeWidth=2;" parent="1" vertex="1">
                    <mxGeometry x="194" y="330" width="25" height="50" as="geometry"/>
                </mxCell>
                <mxCell id="8" value="Â  Â Patient" style="shape=actor;horizontalLabelPosition=right;align=left;labelPosition=right;strokeWidth=2;" parent="1" vertex="1">
                    <mxGeometry x="654" y="270" width="25" height="50" as="geometry"/>
                </mxCell>
                <mxCell id="9" value="Â  Â Patient" style="shape=actor;horizontalLabelPosition=right;align=left;labelPosition=right;strokeWidth=2;" parent="1" vertex="1">
                    <mxGeometry x="654" y="330" width="25" height="50" as="geometry"/>
                </mxCell>
                <mxCell id="15" style="edgeStyle=none;html=1;entryX=0;entryY=0.5;entryDx=0;entryDy=0;" parent="1" source="10" target="4" edge="1">
                    <mxGeometry relative="1" as="geometry"/>
                </mxCell>
                <mxCell id="10" value="Pflegevertrag" style="rounded=1;whiteSpace=wrap;html=1;arcSize=60;strokeWidth=2;" parent="1" vertex="1">
                    <mxGeometry x="504" y="215" width="90" height="40" as="geometry"/>
                </mxCell>
                <mxCell id="14" style="edgeStyle=none;html=1;entryX=0;entryY=0.5;entryDx=0;entryDy=0;" parent="1" source="11" target="8" edge="1">
                    <mxGeometry relative="1" as="geometry"/>
                </mxCell>
                <mxCell id="11" value="Pflegevertrag" style="rounded=1;whiteSpace=wrap;html=1;arcSize=60;strokeWidth=2;" parent="1" vertex="1">
                    <mxGeometry x="504" y="275" width="90" height="40" as="geometry"/>
                </mxCell>
                <mxCell id="13" style="edgeStyle=none;html=1;entryX=0;entryY=0.5;entryDx=0;entryDy=0;" parent="1" source="12" target="9" edge="1">
                    <mxGeometry relative="1" as="geometry"/>
                </mxCell>
                <mxCell id="12" value="Pflegevertrag" style="rounded=1;whiteSpace=wrap;html=1;arcSize=60;strokeWidth=2;" parent="1" vertex="1">
                    <mxGeometry x="504" y="335" width="90" height="40" as="geometry"/>
                </mxCell>
                <mxCell id="25" style="edgeStyle=none;html=1;entryX=0.5;entryY=0;entryDx=0;entryDy=0;exitX=0.417;exitY=1.003;exitDx=0;exitDy=0;exitPerimeter=0;" parent="1" source="19" target="24" edge="1">
                    <mxGeometry relative="1" as="geometry"/>
                </mxCell>
                <mxCell id="19" value="Pflegekasse" style="shape=agent;offsetSize=8;strokeWidth=2;" parent="1" vertex="1">
                    <mxGeometry x="190" y="60" width="500" height="60" as="geometry"/>
                </mxCell>
                <mxCell id="26" style="edgeStyle=none;html=1;entryX=0.5;entryY=0;entryDx=0;entryDy=0;" parent="1" source="24" target="3" edge="1">
                    <mxGeometry relative="1" as="geometry"/>
                </mxCell>
                <mxCell id="24" value="Geld" style="rounded=1;whiteSpace=wrap;html=1;arcSize=60;strokeWidth=2;" parent="1" vertex="1">
                    <mxGeometry x="355" y="140" width="90" height="40" as="geometry"/>
                </mxCell>
                <mxCell id="28" style="edgeStyle=none;html=1;entryX=0.5;entryY=1;entryDx=0;entryDy=0;" parent="1" source="27" target="3" edge="1">
                    <mxGeometry relative="1" as="geometry"/>
                </mxCell>
                <mxCell id="27" value="Â  Â Pfleger (0.3 - 5 Patienten)" style="shape=actor;horizontalLabelPosition=right;align=left;labelPosition=right;strokeWidth=2;" parent="1" vertex="1">
                    <mxGeometry x="387.5" y="410" width="25" height="50" as="geometry"/>
                </mxCell>
                <mxCell id="71" style="edgeStyle=none;html=1;entryX=0.5;entryY=1;entryDx=0;entryDy=0;" parent="1" source="29" target="70" edge="1">
                    <mxGeometry relative="1" as="geometry"/>
                </mxCell>
                <mxCell id="97" style="edgeStyle=none;html=1;entryX=0.25;entryY=1;entryDx=0;entryDy=0;exitX=1;exitY=0.75;exitDx=0;exitDy=0;" parent="1" source="29" target="92" edge="1">
                    <mxGeometry relative="1" as="geometry"/>
                </mxCell>
                <mxCell id="29" value="Â  Â Patient" style="shape=actor;horizontalLabelPosition=right;align=left;labelPosition=right;strokeWidth=2;" parent="1" vertex="1">
                    <mxGeometry x="740" y="655" width="25" height="50" as="geometry"/>
                </mxCell>
                <mxCell id="30" value="Â  Â Patient" style="shape=actor;horizontalLabelPosition=right;align=left;labelPosition=right;strokeWidth=2;" parent="1" vertex="1">
                    <mxGeometry x="740" y="715" width="25" height="50" as="geometry"/>
                </mxCell>
                <mxCell id="31" value="Â  Â Patient" style="shape=actor;horizontalLabelPosition=right;align=left;labelPosition=right;strokeWidth=2;" parent="1" vertex="1">
                    <mxGeometry x="740" y="775" width="25" height="50" as="geometry"/>
                </mxCell>
                <mxCell id="32" style="edgeStyle=none;html=1;entryX=0;entryY=0.5;entryDx=0;entryDy=0;" parent="1" source="33" target="29" edge="1">
                    <mxGeometry relative="1" as="geometry"/>
                </mxCell>
                <mxCell id="33" value="Pflegevertrag" style="rounded=1;whiteSpace=wrap;html=1;arcSize=60;strokeWidth=2;verticalAlign=top;" parent="1" vertex="1">
                    <mxGeometry x="475" y="660" width="250" height="45" as="geometry"/>
                </mxCell>
                <mxCell id="36" style="edgeStyle=none;html=1;entryX=0;entryY=0.5;entryDx=0;entryDy=0;" parent="1" source="37" target="31" edge="1">
                    <mxGeometry relative="1" as="geometry"/>
                </mxCell>
                <mxCell id="37" value="Pflegevertrag" style="rounded=1;whiteSpace=wrap;html=1;arcSize=60;strokeWidth=2;" parent="1" vertex="1">
                    <mxGeometry x="475" y="780" width="250" height="40" as="geometry"/>
                </mxCell>
                <mxCell id="39" value="Teilnahme an Medikamentenversorgung" style="rounded=1;whiteSpace=wrap;html=1;arcSize=60;strokeWidth=2;" parent="1" vertex="1">
                    <mxGeometry x="487.5" y="680" width="230" height="20" as="geometry"/>
                </mxCell>
                <mxCell id="43" style="edgeStyle=none;html=1;entryX=0;entryY=0.5;entryDx=0;entryDy=0;" parent="1" source="40" target="30" edge="1">
                    <mxGeometry relative="1" as="geometry"/>
                </mxCell>
                <mxCell id="40" value="Pflegevertrag" style="rounded=1;whiteSpace=wrap;html=1;arcSize=60;strokeWidth=2;verticalAlign=top;" parent="1" vertex="1">
                    <mxGeometry x="475" y="715" width="250" height="45" as="geometry"/>
                </mxCell>
                <mxCell id="41" value="Teilnahme an Medikamentenversorgung" style="rounded=1;whiteSpace=wrap;html=1;arcSize=60;strokeWidth=2;" parent="1" vertex="1">
                    <mxGeometry x="487.5" y="735" width="230" height="20" as="geometry"/>
                </mxCell>
                <mxCell id="50" style="edgeStyle=none;html=1;entryX=0.01;entryY=0.045;entryDx=0;entryDy=0;entryPerimeter=0;" parent="1" source="47" target="2" edge="1">
                    <mxGeometry relative="1" as="geometry"/>
                </mxCell>
                <mxCell id="47" value="Apo Â§12a&lt;br&gt;Heimversorgungsvertrag" style="rounded=1;whiteSpace=wrap;html=1;arcSize=60;strokeWidth=2;verticalAlign=top;" parent="1" vertex="1">
                    <mxGeometry x="150" y="610" width="190" height="90" as="geometry"/>
                </mxCell>
                <mxCell id="49" style="edgeStyle=none;html=1;entryX=0;entryY=0.5;entryDx=0;entryDy=0;" parent="1" source="48" target="47" edge="1">
                    <mxGeometry relative="1" as="geometry"/>
                </mxCell>
                <mxCell id="83" style="edgeStyle=none;html=1;entryX=0.5;entryY=1;entryDx=0;entryDy=0;" parent="1" source="48" target="82" edge="1">
                    <mxGeometry relative="1" as="geometry"/>
                </mxCell>
                <mxCell id="48" value="Apotheke" style="shape=agent;offsetSize=8;strokeWidth=2;" parent="1" vertex="1">
                    <mxGeometry x="35" y="590" width="100" height="120" as="geometry"/>
                </mxCell>
                <mxCell id="54" style="edgeStyle=none;html=1;entryX=0.002;entryY=0.568;entryDx=0;entryDy=0;entryPerimeter=0;" parent="1" source="51" target="2" edge="1">
                    <mxGeometry relative="1" as="geometry"/>
                </mxCell>
                <mxCell id="51" value="Apo Â§12a&lt;br&gt;Heimversorgungsvertrag" style="rounded=1;whiteSpace=wrap;html=1;arcSize=60;strokeWidth=2;" parent="1" vertex="1">
                    <mxGeometry x="165" y="730" width="160" height="40" as="geometry"/>
                </mxCell>
                <mxCell id="52" style="edgeStyle=none;html=1;entryX=0;entryY=0.5;entryDx=0;entryDy=0;" parent="1" source="53" target="51" edge="1">
                    <mxGeometry relative="1" as="geometry"/>
                </mxCell>
                <mxCell id="60" style="edgeStyle=none;html=1;entryX=0;entryY=0.5;entryDx=0;entryDy=0;" parent="1" source="53" target="59" edge="1">
                    <mxGeometry relative="1" as="geometry">
                        <Array as="points">
                            <mxPoint x="85" y="980"/>
                        </Array>
                    </mxGeometry>
                </mxCell>
                <mxCell id="53" value="Apotheke" style="shape=agent;offsetSize=8;strokeWidth=2;" parent="1" vertex="1">
                    <mxGeometry x="35" y="720" width="100" height="60" as="geometry"/>
                </mxCell>
                <mxCell id="102" style="edgeStyle=none;html=1;entryX=1;entryY=0.5;entryDx=0;entryDy=0;" parent="1" source="56" target="101" edge="1">
                    <mxGeometry relative="1" as="geometry">
                        <Array as="points">
                            <mxPoint x="320" y="555"/>
                        </Array>
                    </mxGeometry>
                </mxCell>
                <mxCell id="56" value="Â  Â Arzt" style="shape=actor;horizontalLabelPosition=right;align=left;labelPosition=right;strokeWidth=2;" parent="1" vertex="1">
                    <mxGeometry x="314" y="490" width="25" height="50" as="geometry"/>
                </mxCell>
                <mxCell id="57" value="Weitere Lieferanten" style="shape=agent;offsetSize=8;strokeWidth=2;" parent="1" vertex="1">
                    <mxGeometry x="336.5" y="870" width="137" height="30" as="geometry"/>
                </mxCell>
                <mxCell id="58" value="" style="shape=useedge;vertical=true;endArrow=none;useSignPosition=left;useSignDirection=none;entryX=0.5;entryY=1;entryDx=0;entryDy=0;exitX=0.5;exitY=0;exitDx=0;exitDy=0;" parent="1" source="57" target="2" edge="1">
                    <mxGeometry height="160" relative="1" as="geometry">
                        <mxPoint x="360" y="990" as="sourcePoint"/>
                        <mxPoint x="360" y="830" as="targetPoint"/>
                    </mxGeometry>
                </mxCell>
                <mxCell id="61" style="edgeStyle=none;html=1;entryX=0.75;entryY=1;entryDx=0;entryDy=0;" parent="1" source="59" target="31" edge="1">
                    <mxGeometry relative="1" as="geometry">
                        <Array as="points">
                            <mxPoint x="759" y="980"/>
                        </Array>
                    </mxGeometry>
                </mxCell>
                <mxCell id="59" value="Versorgungsvertrag" style="rounded=1;whiteSpace=wrap;html=1;arcSize=60;strokeWidth=2;verticalAlign=top;" parent="1" vertex="1">
                    <mxGeometry x="322.5" y="940" width="174.5" height="80" as="geometry"/>
                </mxCell>
                <mxCell id="62" value="Wird hÃ¤ufig als Teil des Pflegevertrages vorgelegt z.B. als Kopiervorlage" style="text;html=1;strokeColor=none;fillColor=none;align=center;verticalAlign=middle;whiteSpace=wrap;rounded=0;" parent="1" vertex="1">
                    <mxGeometry x="318.25" y="1020" width="183" height="50" as="geometry"/>
                </mxCell>
                <mxCell id="63" value="Â  Â Arzt" style="shape=actor;horizontalLabelPosition=right;align=left;labelPosition=right;strokeWidth=2;" parent="1" vertex="1">
                    <mxGeometry x="387.5" y="490" width="25" height="50" as="geometry"/>
                </mxCell>
                <mxCell id="77" style="edgeStyle=none;html=1;entryX=0.5;entryY=0;entryDx=0;entryDy=0;" parent="1" source="64" target="73" edge="1">
                    <mxGeometry relative="1" as="geometry"/>
                </mxCell>
                <mxCell id="94" style="edgeStyle=none;html=1;entryX=0;entryY=0.5;entryDx=0;entryDy=0;exitX=1;exitY=1;exitDx=0;exitDy=0;" parent="1" source="64" target="93" edge="1">
                    <mxGeometry relative="1" as="geometry">
                        <Array as="points">
                            <mxPoint x="540" y="540"/>
                            <mxPoint x="540" y="600"/>
                        </Array>
                    </mxGeometry>
                </mxCell>
                <mxCell id="64" value="Â  Â Arzt" style="shape=actor;horizontalLabelPosition=right;align=left;labelPosition=right;strokeWidth=2;" parent="1" vertex="1">
                    <mxGeometry x="462.5" y="490" width="25" height="50" as="geometry"/>
                </mxCell>
                <mxCell id="65" value="Einwilligung Kontaktaufnahme Arzt" style="rounded=1;whiteSpace=wrap;html=1;arcSize=60;strokeWidth=2;" parent="1" vertex="1">
                    <mxGeometry x="334.25" y="970" width="151" height="40" as="geometry"/>
                </mxCell>
                <mxCell id="66" value="VertrÃ¤ge mÃ¼ssen von Heimen offen gelegt werden" style="text;html=1;strokeColor=none;fillColor=none;align=center;verticalAlign=middle;whiteSpace=wrap;rounded=0;" parent="1" vertex="1">
                    <mxGeometry x="460" y="820" width="280" height="35" as="geometry"/>
                </mxCell>
                <mxCell id="69" style="edgeStyle=none;html=1;entryX=0.877;entryY=1.017;entryDx=0;entryDy=0;entryPerimeter=0;" parent="1" source="67" target="53" edge="1">
                    <mxGeometry relative="1" as="geometry">
                        <Array as="points">
                            <mxPoint x="123" y="805"/>
                        </Array>
                    </mxGeometry>
                </mxCell>
                <mxCell id="67" value="Medikationsplan" style="rounded=1;whiteSpace=wrap;html=1;arcSize=60;strokeWidth=2;" parent="1" vertex="1">
                    <mxGeometry x="200" y="785" width="90" height="40" as="geometry"/>
                </mxCell>
                <mxCell id="72" style="edgeStyle=none;html=1;entryX=1;entryY=0.75;entryDx=0;entryDy=0;" parent="1" source="70" target="64" edge="1">
                    <mxGeometry relative="1" as="geometry">
                        <Array as="points">
                            <mxPoint x="753" y="528"/>
                        </Array>
                    </mxGeometry>
                </mxCell>
                <mxCell id="70" value="Medikationsplan" style="rounded=1;whiteSpace=wrap;html=1;arcSize=60;strokeWidth=2;" parent="1" vertex="1">
                    <mxGeometry x="707.5" y="585" width="90" height="40" as="geometry"/>
                </mxCell>
                <mxCell id="78" style="edgeStyle=none;html=1;entryX=0.75;entryY=0;entryDx=0;entryDy=0;" parent="1" source="73" target="2" edge="1">
                    <mxGeometry relative="1" as="geometry">
                        <Array as="points">
                            <mxPoint x="475" y="640"/>
                            <mxPoint x="430" y="640"/>
                        </Array>
                    </mxGeometry>
                </mxCell>
                <mxCell id="73" value="Medikationsplan" style="rounded=1;whiteSpace=wrap;html=1;arcSize=60;strokeWidth=2;" parent="1" vertex="1">
                    <mxGeometry x="430" y="580" width="90" height="40" as="geometry"/>
                </mxCell>
                <mxCell id="75" value="" style="shape=useedge;vertical=true;edgeStyle=elbowEdgeStyle;elbow=vertical;endArrow=none;useSignPosition=up;useSignDirection=none;entryX=0.5;entryY=1;entryDx=0;entryDy=0;exitX=0.25;exitY=0;exitDx=0;exitDy=0;" parent="1" source="2" target="56" edge="1">
                    <mxGeometry width="70" height="160" relative="1" as="geometry">
                        <mxPoint x="380" y="740" as="sourcePoint"/>
                        <mxPoint x="450" y="580" as="targetPoint"/>
                    </mxGeometry>
                </mxCell>
                <mxCell id="76" value="" style="shape=useedge;vertical=true;endArrow=none;useSignPosition=left;useSignDirection=none;entryX=0.75;entryY=1;entryDx=0;entryDy=0;exitX=0.5;exitY=0;exitDx=0;exitDy=0;" parent="1" source="2" target="63" edge="1">
                    <mxGeometry height="160" relative="1" as="geometry">
                        <mxPoint x="400" y="740" as="sourcePoint"/>
                        <mxPoint x="400" y="580" as="targetPoint"/>
                    </mxGeometry>
                </mxCell>
                <mxCell id="79" value="Medikamentenmanagement&#10;kann in Apotheke sein oder Heim&#10;Fordert Medikamente an" style="shape=agent;offsetSize=8;strokeWidth=2;" parent="1" vertex="1">
                    <mxGeometry x="35" y="1080" width="205" height="70" as="geometry"/>
                </mxCell>
                <mxCell id="80" value="Anlage Medikamentenmanagement" style="rounded=1;whiteSpace=wrap;html=1;arcSize=60;strokeWidth=2;" parent="1" vertex="1">
                    <mxGeometry x="160" y="650" width="170" height="40" as="geometry"/>
                </mxCell>
                <mxCell id="84" style="edgeStyle=none;html=1;entryX=0;entryY=0.5;entryDx=0;entryDy=0;" parent="1" source="82" target="56" edge="1">
                    <mxGeometry relative="1" as="geometry"/>
                </mxCell>
                <mxCell id="82" value="Rezept&lt;br&gt;anforderung" style="rounded=1;whiteSpace=wrap;html=1;arcSize=60;strokeWidth=2;fillColor=#fff2cc;strokeColor=#d6b656;" parent="1" vertex="1">
                    <mxGeometry x="40" y="495" width="90" height="40" as="geometry"/>
                </mxCell>
                <mxCell id="89" style="edgeStyle=none;html=1;entryX=1;entryY=0.5;entryDx=0;entryDy=0;" parent="1" source="87" target="88" edge="1">
                    <mxGeometry relative="1" as="geometry"/>
                </mxCell>
                <mxCell id="87" value="Â  Â Pfleger" style="shape=actor;horizontalLabelPosition=right;align=left;labelPosition=right;strokeWidth=2;" parent="1" vertex="1">
                    <mxGeometry x="725" y="450" width="25" height="50" as="geometry"/>
                </mxCell>
                <mxCell id="90" style="edgeStyle=none;html=1;" parent="1" source="88" edge="1">
                    <mxGeometry relative="1" as="geometry">
                        <mxPoint x="130" y="600" as="targetPoint"/>
                        <Array as="points">
                            <mxPoint x="180" y="600"/>
                        </Array>
                    </mxGeometry>
                </mxCell>
                <mxCell id="88" value="Kommunikation" style="rounded=1;whiteSpace=wrap;html=1;arcSize=60;strokeWidth=2;" parent="1" vertex="1">
                    <mxGeometry x="135" y="450" width="90" height="40" as="geometry"/>
                </mxCell>
                <mxCell id="96" style="edgeStyle=none;html=1;entryX=1;entryY=0.75;entryDx=0;entryDy=0;" parent="1" source="92" target="87" edge="1">
                    <mxGeometry relative="1" as="geometry">
                        <Array as="points">
                            <mxPoint x="869" y="488"/>
                        </Array>
                    </mxGeometry>
                </mxCell>
                <mxCell id="92" value="Beobachtung&lt;br&gt;oder&lt;br&gt;Ãnderung" style="rounded=1;whiteSpace=wrap;html=1;arcSize=60;strokeWidth=2;" parent="1" vertex="1">
                    <mxGeometry x="827" y="640" width="83" height="55" as="geometry"/>
                </mxCell>
                <mxCell id="95" style="edgeStyle=none;html=1;entryX=0;entryY=0.25;entryDx=0;entryDy=0;" parent="1" source="93" target="29" edge="1">
                    <mxGeometry relative="1" as="geometry">
                        <Array as="points">
                            <mxPoint x="690" y="600"/>
                        </Array>
                    </mxGeometry>
                </mxCell>
                <mxCell id="93" value="Visite" style="rounded=1;whiteSpace=wrap;html=1;arcSize=60;strokeWidth=2;" parent="1" vertex="1">
                    <mxGeometry x="571" y="585" width="83" height="30" as="geometry"/>
                </mxCell>
                <mxCell id="98" value="Fallkonferenz" style="rounded=1;whiteSpace=wrap;html=1;arcSize=60;strokeWidth=2;" parent="1" vertex="1">
                    <mxGeometry x="567.5" y="535" width="90" height="40" as="geometry"/>
                </mxCell>
                <mxCell id="99" value="Fallkonferenz&#10;mit Apotheker" style="shape=agent;offsetSize=8;strokeWidth=2;" parent="1" vertex="1">
                    <mxGeometry x="250" y="1080" width="100" height="70" as="geometry"/>
                </mxCell>
                <mxCell id="100" value="Anspruch des&#10;Patienten auf&#10;Versorgungsmanagement&#10;Â§11.4 SGB V" style="shape=agent;offsetSize=8;strokeWidth=2;" parent="1" vertex="1">
                    <mxGeometry x="364" y="1080" width="156" height="70" as="geometry"/>
                </mxCell>
                <mxCell id="103" style="edgeStyle=none;html=1;entryX=0.75;entryY=0;entryDx=0;entryDy=0;" parent="1" source="101" target="48" edge="1">
                    <mxGeometry relative="1" as="geometry">
                        <Array as="points">
                            <mxPoint x="110" y="555"/>
                        </Array>
                    </mxGeometry>
                </mxCell>
                <mxCell id="101" value="Direktzuweisung" style="rounded=1;whiteSpace=wrap;html=1;arcSize=60;strokeWidth=2;fillColor=#fff2cc;strokeColor=#d6b656;" parent="1" vertex="1">
                    <mxGeometry x="194" y="540" width="90" height="30" as="geometry"/>
                </mxCell>
                <mxCell id="0.91" value="Best viewed with the &lt;a href=&quot;https://github.com/ariel-bentu/tam-drawio&quot;&gt;TAM plugin&lt;/a&gt;" style="text;html=1;shape=tamPluginMissing;" vertex="1" connectable="0" parent="1">
                    <mxGeometry x="355" y="1180" width="200" height="25" as="geometry"/>
                </mxCell>
            </root>
        </mxGraphModel>
    </diagram>
    <diagram id="csW_4LB9yQ0UyOC9kcLC" name="Stammdatenmanagement">
        <mxGraphModel dx="1011" dy="737" grid="1" gridSize="10" guides="1" tooltips="1" connect="1" arrows="1" fold="1" page="1" pageScale="1" pageWidth="827" pageHeight="1169" math="0" shadow="0">
            <root>
                <mxCell id="QCenY5rEwddvU02yPKpq-0"/>
                <mxCell id="QCenY5rEwddvU02yPKpq-1" parent="QCenY5rEwddvU02yPKpq-0"/>
                <mxCell id="QCenY5rEwddvU02yPKpq-2" value="Â  Â Heimleiter" style="shape=actor;horizontalLabelPosition=right;align=left;labelPosition=right;strokeWidth=2;" vertex="1" parent="QCenY5rEwddvU02yPKpq-1">
                    <mxGeometry x="160" y="190" width="25" height="50" as="geometry"/>
                </mxCell>
                <mxCell id="QCenY5rEwddvU02yPKpq-6" style="edgeStyle=none;html=1;entryX=0;entryY=0.5;entryDx=0;entryDy=0;" edge="1" parent="QCenY5rEwddvU02yPKpq-1" source="QCenY5rEwddvU02yPKpq-3" target="QCenY5rEwddvU02yPKpq-5">
                    <mxGeometry relative="1" as="geometry"/>
                </mxCell>
                <mxCell id="QCenY5rEwddvU02yPKpq-3" value="Pflegesoftware" style="shape=agent;offsetSize=8;strokeWidth=2;" vertex="1" parent="QCenY5rEwddvU02yPKpq-1">
                    <mxGeometry x="130" y="300" width="100" height="60" as="geometry"/>
                </mxCell>
                <mxCell id="QCenY5rEwddvU02yPKpq-4" value="" style="shape=useedge;vertical=true;endArrow=none;useSignPosition=left;useSignDirection=none;entryX=0.75;entryY=1;entryDx=0;entryDy=0;exitX=0.5;exitY=0;exitDx=0;exitDy=0;" edge="1" parent="QCenY5rEwddvU02yPKpq-1" source="QCenY5rEwddvU02yPKpq-3" target="QCenY5rEwddvU02yPKpq-2">
                    <mxGeometry height="160" relative="1" as="geometry">
                        <mxPoint x="210" y="470" as="sourcePoint"/>
                        <mxPoint x="210" y="310" as="targetPoint"/>
                    </mxGeometry>
                </mxCell>
                <mxCell id="QCenY5rEwddvU02yPKpq-10" style="edgeStyle=none;html=1;entryX=0;entryY=0.5;entryDx=0;entryDy=0;" edge="1" parent="QCenY5rEwddvU02yPKpq-1" source="QCenY5rEwddvU02yPKpq-5" target="QCenY5rEwddvU02yPKpq-7">
                    <mxGeometry relative="1" as="geometry"/>
                </mxCell>
                <mxCell id="QCenY5rEwddvU02yPKpq-5" value="eArztbrief" style="rounded=1;whiteSpace=wrap;html=1;arcSize=17;strokeWidth=2;verticalAlign=top;" vertex="1" parent="QCenY5rEwddvU02yPKpq-1">
                    <mxGeometry x="265" y="285" width="120" height="90" as="geometry"/>
                </mxCell>
                <mxCell id="QCenY5rEwddvU02yPKpq-15" style="edgeStyle=none;html=1;entryX=0;entryY=0.5;entryDx=0;entryDy=0;" edge="1" parent="QCenY5rEwddvU02yPKpq-1" source="QCenY5rEwddvU02yPKpq-7" target="QCenY5rEwddvU02yPKpq-13">
                    <mxGeometry relative="1" as="geometry"/>
                </mxCell>
                <mxCell id="QCenY5rEwddvU02yPKpq-7" value="PVS" style="shape=agent;offsetSize=8;strokeWidth=2;" vertex="1" parent="QCenY5rEwddvU02yPKpq-1">
                    <mxGeometry x="410" y="300" width="100" height="60" as="geometry"/>
                </mxCell>
                <mxCell id="QCenY5rEwddvU02yPKpq-8" value="Â  Â  Arzt" style="shape=actor;horizontalLabelPosition=right;align=left;labelPosition=right;strokeWidth=2;" vertex="1" parent="QCenY5rEwddvU02yPKpq-1">
                    <mxGeometry x="440" y="190" width="25" height="50" as="geometry"/>
                </mxCell>
                <mxCell id="QCenY5rEwddvU02yPKpq-9" value="" style="shape=useedge;vertical=true;endArrow=none;useSignPosition=left;useSignDirection=none;entryX=0.5;entryY=1;entryDx=0;entryDy=0;exitX=0.5;exitY=0;exitDx=0;exitDy=0;" edge="1" parent="QCenY5rEwddvU02yPKpq-1" source="QCenY5rEwddvU02yPKpq-7" target="QCenY5rEwddvU02yPKpq-8">
                    <mxGeometry height="160" relative="1" as="geometry">
                        <mxPoint x="450" y="430" as="sourcePoint"/>
                        <mxPoint x="450" y="270" as="targetPoint"/>
                    </mxGeometry>
                </mxCell>
                <mxCell id="QCenY5rEwddvU02yPKpq-11" value="&lt;span&gt;Rezeptanfrage&lt;/span&gt;" style="rounded=1;whiteSpace=wrap;html=1;arcSize=60;strokeWidth=2;" vertex="1" parent="QCenY5rEwddvU02yPKpq-1">
                    <mxGeometry x="280" y="320" width="90" height="40" as="geometry"/>
                </mxCell>
                <mxCell id="QCenY5rEwddvU02yPKpq-16" style="edgeStyle=none;html=1;" edge="1" parent="QCenY5rEwddvU02yPKpq-1" source="QCenY5rEwddvU02yPKpq-13" target="QCenY5rEwddvU02yPKpq-14">
                    <mxGeometry relative="1" as="geometry"/>
                </mxCell>
                <mxCell id="QCenY5rEwddvU02yPKpq-13" value="Flowtype: 169&lt;br&gt;KIM Nachricht" style="rounded=1;whiteSpace=wrap;html=1;arcSize=60;strokeWidth=2;" vertex="1" parent="QCenY5rEwddvU02yPKpq-1">
                    <mxGeometry x="540" y="310" width="90" height="40" as="geometry"/>
                </mxCell>
                <mxCell id="QCenY5rEwddvU02yPKpq-14" value="Apotheke" style="shape=agent;offsetSize=8;strokeWidth=2;" vertex="1" parent="QCenY5rEwddvU02yPKpq-1">
                    <mxGeometry x="670" y="300" width="100" height="60" as="geometry"/>
                </mxCell>
                <mxCell id="QCenY5rEwddvU02yPKpq-17" value="Â  Â  Apotheke" style="shape=actor;horizontalLabelPosition=right;align=left;labelPosition=right;strokeWidth=2;" vertex="1" parent="QCenY5rEwddvU02yPKpq-1">
                    <mxGeometry x="707.5" y="190" width="25" height="50" as="geometry"/>
                </mxCell>
                <mxCell id="QCenY5rEwddvU02yPKpq-20" value="" style="shape=useedge;vertical=true;endArrow=none;useSignPosition=left;useSignDirection=none;entryX=0.75;entryY=1;entryDx=0;entryDy=0;exitX=0.5;exitY=0;exitDx=0;exitDy=0;" edge="1" parent="QCenY5rEwddvU02yPKpq-1" source="QCenY5rEwddvU02yPKpq-14" target="QCenY5rEwddvU02yPKpq-17">
                    <mxGeometry height="160" relative="1" as="geometry">
                        <mxPoint x="720" y="410" as="sourcePoint"/>
                        <mxPoint x="720" y="250" as="targetPoint"/>
                    </mxGeometry>
                </mxCell>
                <mxCell id="QCenY5rEwddvU02yPKpq-21" value="Fachdienst" style="shape=agent;offsetSize=8;strokeWidth=2;verticalAlign=top;" vertex="1" parent="QCenY5rEwddvU02yPKpq-1">
                    <mxGeometry x="374" y="470" width="166" height="150" as="geometry"/>
                </mxCell>
                <mxCell id="QCenY5rEwddvU02yPKpq-25" style="edgeStyle=none;html=1;entryX=0;entryY=0.5;entryDx=0;entryDy=0;" edge="1" parent="QCenY5rEwddvU02yPKpq-1" source="QCenY5rEwddvU02yPKpq-22" target="QCenY5rEwddvU02yPKpq-23">
                    <mxGeometry relative="1" as="geometry"/>
                </mxCell>
                <mxCell id="QCenY5rEwddvU02yPKpq-22" value="Â  Â Patient" style="shape=actor;horizontalLabelPosition=right;align=left;labelPosition=right;strokeWidth=2;" vertex="1" parent="QCenY5rEwddvU02yPKpq-1">
                    <mxGeometry x="165" y="555" width="25" height="50" as="geometry"/>
                </mxCell>
                <mxCell id="QCenY5rEwddvU02yPKpq-28" style="edgeStyle=none;html=1;entryX=0.5;entryY=1;entryDx=0;entryDy=0;exitX=1;exitY=0.5;exitDx=0;exitDy=0;" edge="1" parent="QCenY5rEwddvU02yPKpq-1" source="QCenY5rEwddvU02yPKpq-26" target="QCenY5rEwddvU02yPKpq-14">
                    <mxGeometry relative="1" as="geometry">
                        <Array as="points">
                            <mxPoint x="720" y="520"/>
                        </Array>
                    </mxGeometry>
                </mxCell>
                <mxCell id="QCenY5rEwddvU02yPKpq-23" value="Alle meine Rezepte an:&lt;br&gt;Kaiserapotheke" style="rounded=1;whiteSpace=wrap;html=1;arcSize=60;strokeWidth=2;" vertex="1" parent="QCenY5rEwddvU02yPKpq-1">
                    <mxGeometry x="386.5" y="550" width="141" height="60" as="geometry"/>
                </mxCell>
                <mxCell id="QCenY5rEwddvU02yPKpq-26" value="E-Rezept" style="rounded=1;whiteSpace=wrap;html=1;arcSize=60;strokeWidth=2;" vertex="1" parent="QCenY5rEwddvU02yPKpq-1">
                    <mxGeometry x="410" y="500" width="90" height="40" as="geometry"/>
                </mxCell>
                <mxCell id="QCenY5rEwddvU02yPKpq-27" value="" style="shape=useedge;vertical=true;endArrow=none;useSignPosition=left;useSignDirection=none;entryX=0.5;entryY=1;entryDx=0;entryDy=0;exitX=0.5;exitY=0;exitDx=0;exitDy=0;" edge="1" parent="QCenY5rEwddvU02yPKpq-1" source="QCenY5rEwddvU02yPKpq-21" target="QCenY5rEwddvU02yPKpq-7">
                    <mxGeometry height="160" relative="1" as="geometry">
                        <mxPoint x="440" y="550" as="sourcePoint"/>
                        <mxPoint x="440" y="390" as="targetPoint"/>
                    </mxGeometry>
                </mxCell>
            </root>
        </mxGraphModel>
    </diagram>
    <diagram id="UFVRu7W0GHXEtEQYxteE" name="System">
        <mxGraphModel dx="1011" dy="737" grid="1" gridSize="10" guides="1" tooltips="1" connect="1" arrows="1" fold="1" page="1" pageScale="1" pageWidth="827" pageHeight="1169" math="0" shadow="0">
            <root>
                <mxCell id="98wmgcszsLLJWeNlt4h4-0"/>
                <mxCell id="98wmgcszsLLJWeNlt4h4-1" parent="98wmgcszsLLJWeNlt4h4-0"/>
                <mxCell id="98wmgcszsLLJWeNlt4h4-2" value="HAPI FHIR (https://fhir.med-united.health)" style="shape=agent;offsetSize=8;strokeWidth=2;verticalAlign=top;" vertex="1" parent="98wmgcszsLLJWeNlt4h4-1">
                    <mxGeometry x="310" y="230" width="480" height="190" as="geometry"/>
                </mxCell>
                <mxCell id="98wmgcszsLLJWeNlt4h4-3" value="MedUnitedMultiTenancyServer" style="shape=agent;offsetSize=8;strokeWidth=2;" vertex="1" parent="98wmgcszsLLJWeNlt4h4-1">
                    <mxGeometry x="540" y="268" width="240" height="52" as="geometry"/>
                </mxCell>
                <UserObject label="https://hapifhir.io/hapi-fhir/docs/server_plain/multitenancy.html" link="https://hapifhir.io/hapi-fhir/docs/server_plain/multitenancy.html" id="98wmgcszsLLJWeNlt4h4-4">
                    <mxCell style="text;whiteSpace=wrap;html=1;" vertex="1" parent="98wmgcszsLLJWeNlt4h4-1">
                        <mxGeometry x="560" y="200" width="350" height="30" as="geometry"/>
                    </mxCell>
                </UserObject>
                <mxCell id="98wmgcszsLLJWeNlt4h4-5" value="JWTTenantExtractorStrategy" style="shape=agent;offsetSize=8;strokeWidth=2;" vertex="1" parent="98wmgcszsLLJWeNlt4h4-1">
                    <mxGeometry x="320" y="268" width="180" height="52" as="geometry"/>
                </mxCell>
                <mxCell id="98wmgcszsLLJWeNlt4h4-6" value="PostgreSQL Database" style="shape=agent;offsetSize=8;strokeWidth=2;" vertex="1" parent="98wmgcszsLLJWeNlt4h4-1">
                    <mxGeometry x="310" y="470" width="480" height="80" as="geometry"/>
                </mxCell>
                <mxCell id="98wmgcszsLLJWeNlt4h4-7" value="" style="shape=useedge;vertical=true;edgeStyle=none;endArrow=none;useSignPosition=left;useSignDirection=none;entryX=0.5;entryY=1;entryDx=0;entryDy=0;" edge="1" parent="98wmgcszsLLJWeNlt4h4-1" source="98wmgcszsLLJWeNlt4h4-6" target="98wmgcszsLLJWeNlt4h4-2">
                    <mxGeometry height="160" relative="1" as="geometry">
                        <mxPoint x="520" y="630" as="sourcePoint"/>
                        <mxPoint x="520" y="470" as="targetPoint"/>
                    </mxGeometry>
                </mxCell>
                <mxCell id="98wmgcszsLLJWeNlt4h4-11" style="edgeStyle=none;html=1;entryX=0;entryY=0.5;entryDx=0;entryDy=0;" edge="1" parent="98wmgcszsLLJWeNlt4h4-1" source="98wmgcszsLLJWeNlt4h4-8" target="98wmgcszsLLJWeNlt4h4-10">
                    <mxGeometry relative="1" as="geometry"/>
                </mxCell>
                <mxCell id="98wmgcszsLLJWeNlt4h4-8" value="id.med-united.health" style="shape=agent;offsetSize=8;strokeWidth=2;" vertex="1" parent="98wmgcszsLLJWeNlt4h4-1">
                    <mxGeometry x="70" y="90" width="140" height="80" as="geometry"/>
                </mxCell>
                <mxCell id="YlqC5ofd0TMgPBQfjxen-0" value="Best viewed with the &lt;a href=&quot;https://github.com/ariel-bentu/tam-drawio&quot;&gt;TAM plugin&lt;/a&gt;" style="text;html=1;shape=tamPluginMissing;" vertex="1" connectable="0" parent="98wmgcszsLLJWeNlt4h4-1">
                    <mxGeometry x="435" y="580" width="200" height="25" as="geometry"/>
                </mxCell>
                <mxCell id="98wmgcszsLLJWeNlt4h4-9" value="KeyCloak" style="text;html=1;strokeColor=none;fillColor=none;align=center;verticalAlign=middle;whiteSpace=wrap;rounded=0;" vertex="1" parent="98wmgcszsLLJWeNlt4h4-1">
                    <mxGeometry x="110" y="50" width="60" height="30" as="geometry"/>
                </mxCell>
                <mxCell id="98wmgcszsLLJWeNlt4h4-13" style="edgeStyle=none;html=1;entryX=0;entryY=0.5;entryDx=0;entryDy=0;" edge="1" parent="98wmgcszsLLJWeNlt4h4-1" source="98wmgcszsLLJWeNlt4h4-10" target="98wmgcszsLLJWeNlt4h4-12">
                    <mxGeometry relative="1" as="geometry"/>
                </mxCell>
                <mxCell id="98wmgcszsLLJWeNlt4h4-10" value="JWT" style="rounded=1;whiteSpace=wrap;html=1;arcSize=60;strokeWidth=2;" vertex="1" parent="98wmgcszsLLJWeNlt4h4-1">
                    <mxGeometry x="260" y="110" width="90" height="40" as="geometry"/>
                </mxCell>
                <mxCell id="98wmgcszsLLJWeNlt4h4-20" style="edgeStyle=none;html=1;" edge="1" parent="98wmgcszsLLJWeNlt4h4-1" source="98wmgcszsLLJWeNlt4h4-12" target="98wmgcszsLLJWeNlt4h4-19">
                    <mxGeometry relative="1" as="geometry"/>
                </mxCell>
                <mxCell id="98wmgcszsLLJWeNlt4h4-12" value="medication-ordering-frontend" style="shape=agent;offsetSize=8;strokeWidth=2;" vertex="1" parent="98wmgcszsLLJWeNlt4h4-1">
                    <mxGeometry x="400" y="90" width="190" height="80" as="geometry"/>
                </mxCell>
                <mxCell id="98wmgcszsLLJWeNlt4h4-14" value="" style="shape=useedge;vertical=true;edgeStyle=none;endArrow=none;useSignPosition=left;useSignDirection=none;entryX=0.5;entryY=1;entryDx=0;entryDy=0;exitX=0.5;exitY=0;exitDx=0;exitDy=0;" edge="1" parent="98wmgcszsLLJWeNlt4h4-1" source="98wmgcszsLLJWeNlt4h4-2" target="98wmgcszsLLJWeNlt4h4-12">
                    <mxGeometry height="160" relative="1" as="geometry">
                        <mxPoint x="450" y="340" as="sourcePoint"/>
                        <mxPoint x="450" y="180" as="targetPoint"/>
                    </mxGeometry>
                </mxCell>
                <mxCell id="98wmgcszsLLJWeNlt4h4-15" value="" style="shape=useedge;endArrow=none;edgeStyle=none;useSignPosition=up;useSignDirection=none;entryX=0;entryY=0.5;entryDx=0;entryDy=0;" edge="1" parent="98wmgcszsLLJWeNlt4h4-1" source="98wmgcszsLLJWeNlt4h4-5" target="98wmgcszsLLJWeNlt4h4-3">
                    <mxGeometry width="160" relative="1" as="geometry">
                        <mxPoint x="500" y="294" as="sourcePoint"/>
                        <mxPoint x="660" y="294" as="targetPoint"/>
                    </mxGeometry>
                </mxCell>
                <mxCell id="98wmgcszsLLJWeNlt4h4-16" value="Extracts the domain of the e-mail address as the tenant ID" style="text;html=1;strokeColor=none;fillColor=none;align=center;verticalAlign=middle;whiteSpace=wrap;rounded=0;" vertex="1" parent="98wmgcszsLLJWeNlt4h4-1">
                    <mxGeometry x="325" y="320" width="170" height="50" as="geometry"/>
                </mxCell>
                <mxCell id="98wmgcszsLLJWeNlt4h4-17" value="earztbrief.med-united.health" style="shape=agent;offsetSize=8;strokeWidth=2;" vertex="1" parent="98wmgcszsLLJWeNlt4h4-1">
                    <mxGeometry x="890" y="250" width="170" height="60" as="geometry"/>
                </mxCell>
                <mxCell id="98wmgcszsLLJWeNlt4h4-18" value="" style="rounded=1;whiteSpace=wrap;html=1;arcSize=60;strokeWidth=2;" vertex="1" parent="98wmgcszsLLJWeNlt4h4-1">
                    <mxGeometry x="660" y="310" width="90" height="40" as="geometry"/>
                </mxCell>
                <mxCell id="YlqC5ofd0TMgPBQfjxen-1" style="edgeStyle=none;html=1;entryX=0.5;entryY=0;entryDx=0;entryDy=0;" edge="1" parent="98wmgcszsLLJWeNlt4h4-1" source="98wmgcszsLLJWeNlt4h4-19" target="98wmgcszsLLJWeNlt4h4-17">
                    <mxGeometry relative="1" as="geometry">
                        <Array as="points">
                            <mxPoint x="975" y="130"/>
                        </Array>
                    </mxGeometry>
                </mxCell>
                <mxCell id="98wmgcszsLLJWeNlt4h4-19" value="XML&lt;br&gt;eArztbrief" style="rounded=1;whiteSpace=wrap;html=1;arcSize=60;strokeWidth=2;" vertex="1" parent="98wmgcszsLLJWeNlt4h4-1">
                    <mxGeometry x="730" y="110" width="90" height="40" as="geometry"/>
                </mxCell>
                <mxCell id="YlqC5ofd0TMgPBQfjxen-2" value="earztbrief-frontend" style="shape=agent;offsetSize=8;strokeWidth=2;" vertex="1" parent="98wmgcszsLLJWeNlt4h4-1">
                    <mxGeometry x="940" y="35" width="130" height="60" as="geometry"/>
                </mxCell>
                <mxCell id="YlqC5ofd0TMgPBQfjxen-3" value="" style="shape=useedge;vertical=true;edgeStyle=none;endArrow=none;useSignPosition=left;useSignDirection=south;entryX=0.5;entryY=1;entryDx=0;entryDy=0;exitX=0.75;exitY=0;exitDx=0;exitDy=0;" edge="1" parent="98wmgcszsLLJWeNlt4h4-1" source="98wmgcszsLLJWeNlt4h4-17" target="YlqC5ofd0TMgPBQfjxen-2">
                    <mxGeometry height="160" relative="1" as="geometry">
                        <mxPoint x="1030" y="350" as="sourcePoint"/>
                        <mxPoint x="1030" y="190" as="targetPoint"/>
                    </mxGeometry>
                </mxCell>
            </root>
        </mxGraphModel>
    </diagram>
</mxfile>